<?xml version="1.0" standalone="no"?>
<!DOCTYPE svg PUBLIC "-//W3C//DTD SVG 20010904//EN"
 "http://www.w3.org/TR/2001/REC-SVG-20010904/DTD/svg10.dtd">
<svg version="1.0" xmlns="http://www.w3.org/2000/svg"
 width="512.000000pt" height="512.000000pt" viewBox="0 0 512.000000 512.000000"
 preserveAspectRatio="xMidYMid meet">
<metadata>
Created by potrace 1.16, written by Peter Selinger 2001-2019
</metadata>
<g transform="translate(0.000000,512.000000) scale(0.100000,-0.100000)"
fill="#000000" stroke="none">
<path d="M2299 4665 c-55 -20 -100 -45 -142 -78 -32 -25 -49 -30 -95 -31 -96
-3 -211 -80 -293 -195 -63 -89 -103 -140 -112 -140 -4 -1 -3 8 3 18 10 20 14
71 5 71 -3 0 -19 -15 -34 -32 -16 -18 -43 -41 -60 -51 -30 -18 -31 -18 -31 2
0 28 -9 26 -53 -10 -20 -17 -37 -28 -37 -26 0 2 7 24 15 47 8 23 15 46 15 51
0 21 -35 5 -80 -37 -46 -43 -49 -44 -52 -22 -2 15 -9 22 -21 22 -23 -2 -16 24
25 89 17 26 28 51 24 54 -3 3 -19 6 -35 5 l-29 -1 29 56 c31 59 38 103 16 103
-21 0 -146 -92 -203 -149 -95 -95 -135 -201 -154 -409 -12 -126 -51 -264 -106
-373 -41 -82 -57 -99 -95 -99 -17 0 -39 -5 -50 -10 -58 -31 31 -140 115 -140
14 0 26 -2 26 -4 0 -8 -40 -90 -58 -119 -17 -27 -16 -29 7 -48 13 -10 34 -19
47 -19 23 0 24 -2 19 -47 -3 -27 -10 -95 -15 -151 -6 -57 -17 -119 -26 -138
-21 -44 -13 -64 26 -64 30 0 31 -1 25 -32 -9 -40 -24 -71 -75 -150 -26 -40
-40 -73 -40 -95 0 -30 3 -33 30 -33 17 0 59 15 93 32 34 18 65 34 69 36 3 2
-6 -29 -22 -69 -23 -61 -33 -74 -61 -86 -74 -31 -119 -109 -119 -205 0 -33 3
-38 24 -38 23 0 23 0 9 -52 -8 -29 -16 -93 -18 -141 -3 -49 -12 -117 -21 -150
-24 -88 -24 -204 0 -239 11 -17 27 -28 41 -28 20 0 22 -4 20 -50 -1 -40 -8
-58 -34 -90 -18 -22 -49 -48 -69 -58 -22 -10 -38 -25 -40 -38 -7 -51 76 -100
151 -87 40 6 46 -2 22 -33 -38 -50 5 -67 77 -30 56 29 63 27 98 -29 19 -30 19
-35 5 -75 -21 -59 -19 -103 5 -125 23 -21 50 -14 50 13 0 10 3 21 6 24 9 10
84 -26 84 -39 0 -19 46 -16 88 6 36 19 104 85 150 146 21 28 20 27 -4 -29 -30
-70 -74 -137 -109 -164 -14 -11 -25 -25 -25 -31 0 -15 39 -34 56 -27 19 7 18
-8 -1 -24 -8 -7 -15 -23 -15 -36 0 -29 29 -38 105 -32 30 3 55 1 55 -3 0 -5
11 -11 24 -15 15 -3 26 -14 28 -27 2 -12 12 -26 23 -32 11 -5 30 -20 43 -33
17 -17 33 -22 72 -22 55 0 93 16 153 62 29 23 37 26 37 13 0 -39 -36 -83 -129
-158 -19 -15 -20 -21 -10 -33 10 -12 27 -15 73 -11 223 15 225 15 220 2 -9
-23 35 -37 98 -33 52 4 63 9 98 43 23 23 40 33 40 25 -1 -30 -39 -99 -64 -115
-29 -20 -34 -40 -10 -49 53 -21 132 18 176 85 l32 50 37 -78 c62 -132 122
-193 190 -193 55 0 66 7 106 67 l37 56 16 -51 c19 -57 36 -82 56 -82 8 0 14 2
14 4 0 5 27 140 35 175 l6 24 22 -21 c42 -40 123 -56 146 -29 8 10 1 22 -28
52 -22 20 -42 49 -46 64 -3 14 -8 35 -11 46 -4 14 2 10 21 -13 36 -43 74 -62
130 -62 53 0 85 14 85 36 0 12 9 13 48 8 56 -7 159 10 182 31 9 8 26 15 37 15
12 0 31 8 43 18 l23 19 -24 16 c-23 17 -23 17 29 17 43 0 58 5 77 24 13 14 34
27 45 31 13 4 20 15 20 31 0 16 6 24 18 24 10 0 24 6 30 12 8 8 36 12 80 10
54 -3 71 0 82 13 12 15 12 21 -2 45 -16 29 -16 29 13 35 45 10 45 23 1 66 -23
21 -52 58 -66 81 -26 45 -59 118 -53 118 2 0 24 -26 49 -58 25 -32 67 -72 93
-90 52 -34 105 -43 105 -17 0 8 9 15 20 15 12 0 32 11 46 25 l26 26 -21 34
c-18 31 -19 37 -6 62 8 16 15 36 15 46 0 24 5 22 58 -22 26 -22 67 -49 92 -60
81 -37 103 -25 70 38 -24 48 -25 55 -5 47 21 -8 45 3 45 20 0 8 -8 27 -17 41
l-17 26 42 -5 c55 -8 102 6 131 36 32 34 24 66 -20 91 -21 11 -51 36 -68 56
-26 31 -31 45 -31 88 0 44 3 51 20 51 12 0 28 13 40 33 26 42 26 129 0 232
-11 43 -20 108 -20 144 0 58 -4 86 -25 178 -4 17 0 22 17 25 20 3 23 8 20 43
-6 104 -37 159 -111 197 -42 22 -56 45 -86 139 -4 12 12 7 62 -18 73 -37 125
-41 131 -11 4 21 -25 83 -78 167 -47 76 -53 121 -16 121 37 0 52 25 33 54 -19
28 -33 111 -43 249 -6 95 -6 97 15 97 33 0 61 18 61 39 0 10 -16 45 -35 77
-19 32 -35 61 -35 66 0 4 11 8 25 8 84 0 167 94 123 138 -7 7 -28 12 -48 12
-44 0 -56 12 -103 105 -54 110 -87 227 -103 370 -23 208 -45 274 -123 372 -40
51 -205 183 -229 183 -31 0 -23 -37 36 -152 2 -5 -10 -8 -27 -8 -37 0 -39 -13
-7 -59 14 -20 28 -48 31 -64 6 -22 4 -26 -9 -21 -12 5 -16 0 -16 -21 0 -27 0
-27 -51 19 -28 25 -57 46 -65 46 -18 0 -18 -29 1 -74 l15 -36 -41 30 c-49 35
-63 38 -56 10 3 -11 3 -20 1 -20 -13 0 -85 56 -99 76 -32 49 -44 20 -20 -51
10 -27 -57 46 -100 111 -81 122 -228 221 -317 212 -38 -4 -48 0 -83 29 -52 45
-129 81 -186 89 -75 10 -112 -24 -72 -68 9 -10 12 -18 6 -18 -5 0 -22 14 -37
30 -23 26 -30 29 -47 19 -12 -6 -41 -11 -65 -12 -24 0 -49 -6 -56 -14 -9 -11
-13 -11 -27 1 -9 7 -34 13 -56 12 -22 -1 -49 4 -61 11 -18 12 -24 10 -48 -18
-15 -17 -30 -28 -33 -25 -4 3 2 15 13 27 19 21 19 21 -5 40 -27 22 -70 23
-122 4z m-40 -509 c18 4 31 2 31 -3 0 -11 43 -33 64 -33 7 0 30 11 50 25 l38
25 30 -25 c35 -30 71 -32 119 -7 34 17 37 17 75 0 53 -24 77 -22 112 7 l30 25
43 -25 c54 -30 69 -31 103 -4 16 13 33 18 46 14 11 -4 34 1 52 9 38 19 38 19
38 2 0 -7 8 -24 19 -37 17 -22 29 -62 34 -115 1 -12 23 -44 50 -72 33 -36 47
-59 47 -79 l-1 -28 -20 28 c-41 55 -176 110 -206 85 -7 -6 -13 -7 -13 -2 0 22
-23 -20 -45 -82 l-25 -69 0 63 c0 34 -4 62 -8 62 -14 0 -41 -69 -55 -139 l-13
-63 -17 25 c-11 17 -17 52 -19 114 l-3 88 -22 -22 c-13 -13 -25 -23 -28 -23
-11 0 -4 50 8 50 6 0 3 7 -8 16 -18 14 -22 13 -37 -7 -10 -12 -18 -34 -18 -51
0 -17 -4 -27 -10 -23 -5 3 -10 31 -10 61 0 51 -7 64 -24 47 -11 -11 -70 -10
-77 0 -15 21 -29 -8 -30 -61 l-1 -57 -16 49 c-18 52 -28 61 -51 47 -12 -8 -12
-13 -3 -24 7 -8 9 -22 6 -31 -6 -15 -9 -15 -29 4 -12 11 -25 17 -28 13 -4 -3
-7 -45 -7 -93 0 -79 -9 -110 -31 -110 -3 0 -9 22 -12 50 -7 58 -41 140 -58
140 -8 0 -10 -17 -7 -55 3 -30 1 -52 -4 -49 -4 3 -8 9 -8 14 0 5 -9 34 -21 65
-14 39 -25 55 -35 51 -7 -3 -16 -1 -20 5 -3 5 -13 8 -22 5 -10 -3 -36 -10 -59
-16 -25 -6 -61 -29 -92 -56 -28 -25 -51 -41 -51 -36 0 25 22 65 58 104 22 24
40 50 40 58 2 27 27 107 38 121 6 8 14 22 17 32 6 16 9 17 36 2 18 -9 41 -12
60 -9z m-55 -303 c-8 -32 -42 -103 -49 -103 -9 0 7 53 27 93 22 44 31 48 22
10z m876 -29 c28 -64 24 -88 -5 -34 -23 42 -32 80 -20 80 3 0 15 -21 25 -46z
m385 -3201 c17 -11 16 -11 -7 -3 -38 13 -106 48 -111 57 -2 5 -7 21 -11 38 -7
28 -5 27 51 -25 32 -30 68 -61 78 -67z m-796 -121 c6 -15 17 -66 24 -114 14
-85 14 -87 -7 -92 -29 -8 -51 22 -76 101 -24 79 -25 111 -4 141 15 22 17 22
34 7 10 -9 23 -28 29 -43z"/>
</g>
</svg>
